#!OML:ASF Y:\EmotionMaleHayes\Project 1\Capture day 1\Session 1\Male1.ASF
:FULLY-SPECIFIED
:DEGREES
47
root -28.7628 17.1209 1.03446 20.5258 87.1176 18.932
lowerback 3.99528 1.7079 -3.94813
upperback 1.44652 2.14274 -0.468086
thorax -0.877372 1.07683 1.62838
lowerneck -21.6307 2.30335 5.14192
upperneck 25.1137 1.79291 -0.355933
head 11.8989 1.3457 -0.680827
rclavicle 8.62228e-015 4.57205e-015
rhumerus -35.967 5.75717 -90.1573
rradius 33.3786
rwrist 1.04719
rhand -13.3917 -29.2356
rfingers 7.12502
rthumb 12.7156 -58.8284
lclavicle 8.62228e-015 4.57205e-015
lhumerus -30.3563 -11.5238 92.0792
lradius 24.9113
lwrist -8.01416
lhand -23.3273 -26.3746
lfingers 7.12502
lthumb 3.12698 3.58222
rfemur 7.92205 -5.24025 13.6466
rtibia 2.08355
rfoot -16.2787 -5.40151
rtoes 1.91019
lfemur 9.69207 -0.990157 -16.3643
ltibia -2.2888
lfoot -9.76788 6.97375
ltoes -16.738
48
root -28.7613 17.122 1.03506 18.5473 87.1268 17.0091
lowerback 4.04604 1.73071 -3.84496
upperback 1.46396 2.17538 -0.4646
thorax -0.886136 1.09327 1.57139
lowerneck -21.5737 2.32552 5.27186
upperneck 25.0697 1.81363 -0.464132
head 11.874 1.35237 -0.740152
rclavicle -7.7526e-015 -1.39149e-015
rhumerus -35.9012 5.50363 -90.0609
rradius 33.3134
rwrist 0.991039
rhand -13.1316 -28.9723
rfingers 7.12502
rthumb 12.9663 -58.5494
lclavicle -7.7526e-015 -1.39149e-015
lhumerus -30.3681 -11.5319 92.0553
lradius 24.863
lwrist -8.14166
lhand -22.2688 -26.4982
lfingers 7.12502
lthumb 4.14918 3.44116
rfemur 7.99159 -5.23494 13.766
rtibia 2.08228
rfoot -16.2332 -5.38671
rtoes 1.53961
lfemur 9.76826 -0.86296 -16.2228
ltibia -2.29321
lfoot -9.75797 6.88714
ltoes -17.0462
49
root -28.76 17.1229 1.03421 17.6821 87.1319 16.165
lowerback 4.06118 1.74107 -3.79329
upperback 1.46748 2.19059 -0.458085
thorax -0.890231 1.10092 1.54802
lowerneck -21.6249 2.29579 5.40358
upperneck 25.2191 1.78213 -0.658848
head 11.9442 1.32862 -0.839526
rclavicle 1.08338e-014 1.19271e-015
rhumerus -35.8795 5.48336 -90.043
rradius 33.2576
rwrist 1.01011
rhand -13.137 -28.9168
rfingers 7.12502
rthumb 12.9611 -58.4942
lclavicle 1.08338e-014 1.19271e-015
lhumerus -30.3056 -11.3795 91.9895
lradius 24.7363
lwrist -8.20383
lhand -21.662 -26.7266
lfingers 7.12502
lthumb 4.73511 3.20048
rfemur 8.00448 -5.3475 13.7806
rtibia 2.11534
rfoot -16.173 -5.30005
rtoes 1.46419
lfemur 9.80738 -0.855988 -16.1881
ltibia -2.29432
lfoot -9.78935 6.8532
ltoes -17.4662
50
root -28.7597 17.1219 1.03326 18.8287 87.152 17.2788
lowerback 4.02075 1.71853 -3.84849
upperback 1.46308 2.16013 -0.459625
thorax -0.872384 1.08537 1.58004
lowerneck -21.5742 2.30973 5.36514
upperneck 25.1617 1.80016 -0.597521
head 11.9116 1.34005 -0.807605
rclavicle 8.39865e-015 -3.97569e-016
rhumerus -35.872 5.62468 -90.098
rradius 33.2382
rwrist 1.06781
rhand -13.2698 -29.0177
rfingers 7.12502
rthumb 12.8332 -58.6032
lclavicle 8.39865e-015 -3.97569e-016
lhumerus -30.3033 -11.4051 92.0615
lradius 24.7422
lwrist -8.26125
lhand -21.8754 -26.3363
lfingers 7.12502
lthumb 4.52909 3.59525
rfemur 7.97627 -5.41341 13.7099
rtibia 2.12526
rfoot -16.1687 -5.283
rtoes 1.44036
lfemur 9.75542 -0.872349 -16.2562
ltibia -2.29524
lfoot -9.77507 6.83258
ltoes -17.4223
51
root -28.7594 17.1213 1.03392 16.7011 87.2081 15.136
lowerback 4.0301 1.70138 -3.76603
upperback 1.43907 2.13911 -0.390097
thorax -0.900901 1.07522 1.60569
lowerneck -21.4596 2.29268 5.25214
upperneck 25.0817 1.807 -0.542876
head 11.8561 1.33828 -0.768251
rclavicle -2.36554e-014 1.49089e-014
rhumerus -35.9883 5.83449 -90.189
rradius 33.3274
rwrist 1.28746
rhand -13.44 -29.4838
rfingers 7.12502
rthumb 12.6691 -59.0796
lclavicle -2.36554e-014 1.49089e-014
lhumerus -30.3537 -11.3188 92.1225
lradius 24.7576
lwrist -8.33423
lhand -21.9317 -26.2611
lfingers 7.12502
lthumb 4.47473 3.67162
rfemur 7.97708 -5.39804 13.8648
rtibia 2.09305
rfoot -16.1425 -5.28505
rtoes 1.52055
lfemur 9.73529 -0.864899 -16.096
ltibia -2.2898
lfoot -9.77485 6.84771
ltoes -16.8005
52
root -28.7583 17.1222 1.03425 13.3385 87.2385 11.7951
lowerback 4.03947 1.71765 -3.57162
upperback 1.46102 2.1686 -0.360005
thorax -0.879489 1.08945 1.52658
lowerneck -21.5181 2.28271 5.24492
upperneck 25.0946 1.79006 -0.540651
head 11.8719 1.33011 -0.768571
rclavicle 3.97569e-015 -4.37326e-015
rhumerus -35.9627 5.62342 -90.0858
rradius 33.336
rwrist 1.08471
rhand -13.2046 -29.0942
rfingers 7.12502
rthumb 12.896 -58.6758
lclavicle 3.97569e-015 -4.37326e-015
lhumerus -30.3075 -11.3236 92.0995
lradius 24.7521
lwrist -8.2693
lhand -21.7664 -26.4262
lfingers 7.12502
lthumb 4.63437 3.50312
rfemur 7.99877 -5.4023 14.0594
rtibia 2.07076
rfoot -16.0956 -5.25162
rtoes 1.75635
lfemur 9.89815 -1.34822 -16.0404
ltibia -2.50036
lfoot -9.82115 7.35352
ltoes -16.4065
53
root -28.7583 17.1219 1.03461 14.0896 87.2273 12.531
lowerback 4.03573 1.72649 -3.63638
upperback 1.45149 2.1777 -0.365164
thorax -0.889797 1.09419 1.55691
lowerneck -21.5665 2.30114 5.23764
upperneck 25.1222 1.80239 -0.49476
head 11.8922 1.34144 -0.747663
rclavicle -2.96438e-014 9.34288e-015
rhumerus -35.9706 5.628 -90.0961
rradius 33.3795
rwrist 1.01671
rhand -13.3506 -28.8899
rfingers 7.12502
rthumb 12.7552 -58.4803
lclavicle -2.96438e-014 9.34288e-015
lhumerus -30.2914 -11.2694 92.0761
lradius 24.7383
lwrist -8.21287
lhand -21.6079 -26.6014
lfingers 7.12502
lthumb 4.78735 3.32447
rfemur 7.97622 -5.30321 14.043
rtibia 2.06755
rfoot -16.112 -5.33676
rtoes 1.90587
lfemur 9.99784 -1.68461 -16.1927
ltibia -2.73265
lfoot -9.7669 7.71396
ltoes -16.8886
54
root -28.7567 17.1202 1.03518 16.2268 87.1525 14.6251
lowerback 3.97041 1.74197 -3.81726
upperback 1.43729 2.1938 -0.375669
thorax -0.87486 1.10194 1.64811
lowerneck -21.553 2.29349 5.21919
upperneck 25.1387 1.79104 -0.46444
head 11.8951 1.33932 -0.735114
rclavicle -1.39149e-014 9.74045e-015
rhumerus -35.968 5.64928 -90.092
rradius 33.3557
rwrist 1.06476
rhand -13.5365 -28.5173
rfingers 7.12502
rthumb 12.576 -58.1188
lclavicle -1.39149e-014 9.74045e-015
lhumerus -30.3602 -11.314 92.1569
lradius 24.7491
lwrist -8.45563
lhand -22.2637 -26.4052
lfingers 7.12502
lthumb 4.15418 3.53401
rfemur 7.91915 -5.15886 13.9432
rtibia 2.09051
rfoot -16.142 -5.43096
rtoes 1.75832
lfemur 9.87084 -1.11733 -16.1604
ltibia -2.60611
lfoot -9.65472 7.22009
ltoes -17.905
55
root -28.7537 17.1197 1.03454 17.385 87.0704 15.7783
lowerback 3.95708 1.78255 -3.8837
upperback 1.41785 2.24512 -0.409567
thorax -0.891422 1.12807 1.6478
lowerneck -21.5336 2.25993 5.23297
upperneck 25.1716 1.74077 -0.461669
head 11.9026 1.31991 -0.744646
rclavicle -4.99446e-015 -8.74653e-015
rhumerus -36.0043 5.52618 -90.0517
rradius 33.299
rwrist 1.10375
rhand -13.3554 -28.5236
rfingers 7.12502
rthumb 12.7506 -58.1143
lclavicle -4.99446e-015 -8.74653e-015
lhumerus -30.4619 -11.4036 92.2063
lradius 24.8406
lwrist -8.42159
lhand -22.507 -26.1526
lfingers 7.12502
lthumb 3.91919 3.79115
rfemur 7.89817 -5.13928 13.8415
rtibia 2.12245
rfoot -16.1876 -5.37877
rtoes 1.74045
lfemur 9.76875 -0.512462 -16.0795
ltibia -2.38866
lfoot -9.65225 6.67984
ltoes -18.2749
56
root -28.7538 17.1194 1.03408 18.1368 87.0766 16.5542
lowerback 4.01939 1.79954 -3.87206
upperback 1.40687 2.26484 -0.446613
thorax -0.936721 1.13901 1.59999
lowerneck -21.5317 2.23971 5.23153
upperneck 25.1892 1.71078 -0.45209
head 11.908 1.30835 -0.745686
rclavicle 2.59166e-014 5.1684e-015
rhumerus -36.0363 5.44524 -90.0497
rradius 33.2985
rwrist 1.10355
rhand -13.1654 -28.8348
rfingers 7.12502
rthumb 12.9337 -58.4139
lclavicle 2.59166e-014 5.1684e-015
lhumerus -30.4821 -11.4832 92.2142
lradius 24.8576
lwrist -8.31865
lhand -22.1918 -26.0531
lfingers 7.12502
lthumb 4.2236 3.88474
rfemur 7.92889 -5.23574 13.7567
rtibia 2.12001
rfoot -16.2123 -5.25708
rtoes 2.18241
lfemur 9.82718 -0.664236 -16.1748
ltibia -2.43191
lfoot -9.67792 6.77832
ltoes -18.102
